<?xml version="1.0" encoding="iso-8859-1"?>
<!-- Generator: Adobe Illustrator 19.0.0, SVG Export Plug-In . SVG Version: 6.00 Build 0)  -->
<svg version="1.1" id="Capa_1" xmlns="http://www.w3.org/2000/svg" xmlns:xlink="http://www.w3.org/1999/xlink" x="0px" y="0px"
	 viewBox="0 0 512 512" style="enable-background:new 0 0 512 512;" xml:space="preserve">
<path style="fill:#E7EBEE;" d="M40.358,17.778v494.221h431.284V17.778H40.358z M339.234,51.072
	c13.671,0,24.763,11.092,24.763,24.763s-11.092,24.763-24.763,24.763c-13.681,0-24.763-11.092-24.763-24.763
	S325.552,51.072,339.234,51.072z M172.766,51.072c13.681,0,24.763,11.092,24.763,24.763s-11.081,24.763-24.763,24.763
	c-13.671,0-24.763-11.092-24.763-24.763S159.095,51.072,172.766,51.072z"/>
<path style="fill:#F71B29;" d="M40.358,17.778v126.155h431.284V17.778H40.358z M172.766,100.597
	c-13.671,0-24.763-11.092-24.763-24.763s11.092-24.763,24.763-24.763c13.681,0,24.763,11.092,24.763,24.763
	S186.448,100.597,172.766,100.597z M339.234,100.597c-13.681,0-24.763-11.092-24.763-24.763s11.081-24.763,24.763-24.763
	c13.671,0,24.763,11.092,24.763,24.763S352.905,100.597,339.234,100.597z"/>
<g>
	<path style="fill:#E7EBEE;" d="M172.769,108.337c-17.921,0-32.501-14.58-32.501-32.501s14.58-32.501,32.501-32.501
		s32.501,14.58,32.501,32.501S190.69,108.337,172.769,108.337z M172.769,58.811c-9.387,0-17.024,7.637-17.024,17.024
		s7.637,17.024,17.024,17.024c9.387,0,17.024-7.637,17.024-17.024S182.157,58.811,172.769,58.811z"/>
	<path style="fill:#E7EBEE;" d="M339.232,108.337c-17.921,0-32.501-14.58-32.501-32.501s14.58-32.501,32.501-32.501
		c17.921,0,32.501,14.58,32.501,32.501S357.154,108.337,339.232,108.337z M339.232,58.811c-9.387,0-17.024,7.637-17.024,17.024
		s7.637,17.024,17.024,17.024c9.387,0,17.024-7.637,17.024-17.024S348.62,58.811,339.232,58.811z"/>
</g>
<g>
	<path style="fill:#414551;" d="M127.473,300.921c17.975,0,32.546-14.572,32.546-32.546h45.167v207.899H160.02V330.147h-33.875
		L127.473,300.921z"/>
	<path style="fill:#414551;" d="M242.386,269.039v43.174h89.004c-42.509,36.532-75.056,124.209-75.056,164.061h49.152
		c0-67.085,45.167-128.858,80.37-164.061v-43.174H242.386z"/>
</g>
<path style="fill:#FFFFFF;" d="M471.642,426.882c-46.875-24.614-71.603-8.951-71.603-8.951c0,42.514-23.958,94.068-80.554,94.068
	C319.484,512,431.367,507.436,471.642,426.882z"/>
<g>
	<path style="fill:#F71B29;" d="M183.566,239.364c-16.71,0-30.303-13.594-30.303-30.303c0-4.274,3.465-7.738,7.738-7.738
		s7.738,3.465,7.738,7.738c0,8.175,6.651,14.827,14.827,14.827s14.827-6.651,14.827-14.827v-28.682c0-4.274,3.465-7.738,7.738-7.738
		c4.274,0,7.738,3.465,7.738,7.738v28.682C213.869,225.77,200.276,239.364,183.566,239.364z"/>
	<path style="fill:#F71B29;" d="M256,239.364c-16.71,0-30.303-13.594-30.303-30.303v-28.682c0-4.274,3.465-7.738,7.738-7.738
		c4.274,0,7.738,3.465,7.738,7.738v28.682c0,8.175,6.651,14.827,14.827,14.827c8.176,0,14.827-6.651,14.827-14.827v-28.682
		c0-4.274,3.465-7.738,7.738-7.738c4.274,0,7.738,3.465,7.738,7.738v28.682C286.303,225.77,272.71,239.364,256,239.364z"/>
	<path style="fill:#F71B29;" d="M350.999,239.364h-45.13c-4.274,0-7.738-3.465-7.738-7.738v-51.247c0-4.274,3.465-7.738,7.738-7.738
		s7.738,3.465,7.738,7.738v43.509h37.392c4.274,0,7.738,3.465,7.738,7.738C358.737,235.899,355.273,239.364,350.999,239.364z"/>
</g>
<g>
	<path style="fill:#414551;" d="M172.769,83.574c-4.274,0-7.738-3.465-7.738-7.738V7.738c0-4.274,3.465-7.738,7.738-7.738
		c4.274,0,7.738,3.465,7.738,7.738v68.097C180.508,80.109,177.043,83.574,172.769,83.574z"/>
	<path style="fill:#414551;" d="M339.232,83.574c-4.274,0-7.738-3.465-7.738-7.738V7.738c0-4.274,3.465-7.738,7.738-7.738
		c4.274,0,7.738,3.465,7.738,7.738v68.097C346.97,80.109,343.506,83.574,339.232,83.574z"/>
</g>
<g>
</g>
<g>
</g>
<g>
</g>
<g>
</g>
<g>
</g>
<g>
</g>
<g>
</g>
<g>
</g>
<g>
</g>
<g>
</g>
<g>
</g>
<g>
</g>
<g>
</g>
<g>
</g>
<g>
</g>
</svg>
