<?xml version="1.0"?>
<svg xmlns="http://www.w3.org/2000/svg" xmlns:xlink="http://www.w3.org/1999/xlink" xmlns:svgjs="http://svgjs.com/svgjs" version="1.1" width="512" height="512" x="0" y="0" viewBox="0 0 60 60" style="enable-background:new 0 0 512 512" xml:space="preserve" class=""><g><g xmlns="http://www.w3.org/2000/svg" id="Page-1" fill="none" fill-rule="evenodd"><g id="017---Online-Course" fill="rgb(0,0,0)" fill-rule="nonzero"><path id="Shape" d="m55 0h-50c-2.76005315.00330612-4.99669388 2.23994685-5 5v50c.00330612 2.7600532 2.23994685 4.9966939 5 5h50c2.7600532-.0033061 4.9966939-2.2399468 5-5v-50c-.0033061-2.76005315-2.2399468-4.99669388-5-5zm-50 2h50c1.6568542 0 3 1.34314575 3 3v3h-56v-3c0-1.65685425 1.34314575-3 3-3zm50 56h-50c-1.65685425 0-3-1.3431458-3-3v-45h56v45c0 1.6568542-1.3431458 3-3 3z" fill="#000000" data-original="#000000" style="" class=""/><circle id="Oval" cx="6" cy="5" r="1" fill="#000000" data-original="#000000" style="" class=""/><circle id="Oval" cx="10" cy="5" r="1" fill="#000000" data-original="#000000" style="" class=""/><circle id="Oval" cx="14" cy="5" r="1" fill="#000000" data-original="#000000" style="" class=""/><path id="Shape" d="m52 6h1c.5522847 0 1-.44771525 1-1s-.4477153-1-1-1h-1c-.5522847 0-1 .44771525-1 1s.4477153 1 1 1z" fill="#000000" data-original="#000000" style="" class=""/><path id="Shape" d="m42 6h6c.5522847 0 1-.44771525 1-1s-.4477153-1-1-1h-6c-.5522847 0-1 .44771525-1 1s.4477153 1 1 1z" fill="#000000" data-original="#000000" style="" class=""/><path id="Shape" d="m50 12h-40c-1.65685425 0-3 1.3431458-3 3v16c0 1.6568542 1.34314575 3 3 3h40c1.6568542 0 3-1.3431458 3-3v-16c0-1.6568542-1.3431458-3-3-3zm1 19c0 .5522847-.4477153 1-1 1h-40c-.55228475 0-1-.4477153-1-1v-16c0-.5522847.44771525-1 1-1h40c.5522847 0 1 .4477153 1 1z" fill="#000000" data-original="#000000" style="" class=""/><path id="Shape" d="m30 16c-3.8659932 0-7 3.1340068-7 7s3.1340068 7 7 7 7-3.1340068 7-7c-.0044086-3.8641657-3.1358343-6.9955914-7-7zm0 12c-2.7614237 0-5-2.2385763-5-5s2.2385763-5 5-5 5 2.2385763 5 5c-.0033061 2.7600532-2.2399468 4.9966939-5 5z" fill="#000000" data-original="#000000" style="" class=""/><path id="Shape" d="m32.555 22.168-3-2c-.4595009-.306518-1.080482-.1825009-1.387.277s-.1825009 1.080482.277 1.387l1.755 1.168-1.752 1.168c-.297245.1982824-.4661282.5400812-.4430331.8966441s.2346599.6737195.555.832c.32034.1582805.7007881.1336383.9980331-.0646441l3-2c.2781551-.1854732.4452244-.4976789.4452244-.832s-.1670693-.6465268-.4452244-.832z" fill="#000000" data-original="#000000" style="" class=""/><path id="Shape" d="m28 38h-1c0-1.1045695-.8954305-2-2-2h-4c-.7384319-.0006597-1.4509351.2722291-2 .766-.5490649-.4937709-1.2615681-.7666597-2-.766h-4c-1.1045695 0-2 .8954305-2 2h-1c-1.65685425 0-3 1.3431458-3 3v12c0 1.6568542 1.34314575 3 3 3h18c1.6568542 0 3-1.3431458 3-3v-12c0-1.6568542-1.3431458-3-3-3zm-15 10h4c.5522847 0 1 .4477153 1 1v1h-5zm7 1c0-.5522847.4477153-1 1-1h4v2h-5zm1-11h4v8h-4c-.3414397.0033144-.679743.0655622-1 .184v-7.184c0-.5522847.4477153-1 1-1zm-4 0c.5522847 0 1 .4477153 1 1v7.184c-.320257-.1184378-.6585603-.1806856-1-.184h-4v-8zm12 15c0 .5522847-.4477153 1-1 1h-18c-.55228475 0-1-.4477153-1-1v-12c0-.5522847.44771525-1 1-1h1v10c0 1.1045695.8954305 2 2 2h12c1.1045695 0 2-.8954305 2-2v-10h1c.5522847 0 1 .4477153 1 1z" fill="#000000" data-original="#000000" style="" class=""/><path id="Shape" d="m52 40h-16c-.5522847 0-1 .4477153-1 1s.4477153 1 1 1h16c.5522847 0 1-.4477153 1-1s-.4477153-1-1-1z" fill="#000000" data-original="#000000" style="" class=""/><path id="Shape" d="m45 52h-9c-.5522847 0-1 .4477153-1 1s.4477153 1 1 1h9c.5522847 0 1-.4477153 1-1s-.4477153-1-1-1z" fill="#000000" data-original="#000000" style="" class=""/><path id="Shape" d="m36 46h9c.5522847 0 1-.4477153 1-1s-.4477153-1-1-1h-9c-.5522847 0-1 .4477153-1 1s.4477153 1 1 1z" fill="#000000" data-original="#000000" style="" class=""/><path id="Shape" d="m36 50h2c.5522847 0 1-.4477153 1-1s-.4477153-1-1-1h-2c-.5522847 0-1 .4477153-1 1s.4477153 1 1 1z" fill="#000000" data-original="#000000" style="" class=""/><path id="Shape" d="m52 44h-3c-.5522847 0-1 .4477153-1 1s.4477153 1 1 1h3c.5522847 0 1-.4477153 1-1s-.4477153-1-1-1z" fill="#000000" data-original="#000000" style="" class=""/><path id="Shape" d="m52 48h-10c-.5522847 0-1 .4477153-1 1s.4477153 1 1 1h10c.5522847 0 1-.4477153 1-1s-.4477153-1-1-1z" fill="#000000" data-original="#000000" style="" class=""/></g></g></g></svg>
