<svg id="Capa_1" enable-background="new 0 0 512 512" height="512" viewBox="0 0 512 512" width="512" xmlns="http://www.w3.org/2000/svg"><g><g><path d="m447 117h-191l-10.667 139 10.667 139h191c35.841 0 65-29.159 65-65v-148c0-35.841-29.159-65-65-65z" fill="#59c36a"/><path d="m65 117c-35.841 0-65 29.159-65 65v148c0 35.841 29.159 65 65 65h191v-278z" fill="#97de3d"/></g><path d="m392.599 183.973-28.206 43.329-28.293-43.329h-35.828l49.129 75.241-.169 68.746 30 .073.169-68.796 48.995-75.264z" fill="#eaf1ff"/><path d="m195.539 231.172c0-26.009-21.442-47.169-47.799-47.169h-46.74v143.993h30v-49.596c6.196-.031 12.859-.059 16.74-.059 26.357 0 47.799-21.16 47.799-47.169zm-64.46 0c0-3.393-.017-10.495-.035-17.169h16.696c9.648 0 17.799 7.862 17.799 17.169s-8.15 17.169-17.799 17.169c-3.869 0-10.445.028-16.602.058-.031-6.384-.059-13.262-.059-17.227z" fill="#f9f9f9"/><g><path d="m268.956 184h-12.956l-4.666 26.003 4.666 25.382.142-.372 12.601 33.392h-12.743l-4.666 15.595 4.666 14.405h24.065l11.141 29.521h32.065z" fill="#eaf1ff"/><path d="m243.424 268.405 12.576-33.02v-51.385h-12.531l-54.816 143.926h32.102l11.243-29.521h24.002v-30z" fill="#f9f9f9"/></g></g></svg>