<?xml version="1.0" encoding="iso-8859-1"?>
<!-- Generator: Adobe Illustrator 19.0.0, SVG Export Plug-In . SVG Version: 6.00 Build 0)  -->
<svg version="1.1" id="Capa_1" xmlns="http://www.w3.org/2000/svg" xmlns:xlink="http://www.w3.org/1999/xlink" x="0px" y="0px"
	 viewBox="0 0 512 512" style="enable-background:new 0 0 512 512;" xml:space="preserve">
<g>
	<g>
		<path d="M436,0H76C59.431,0,46,13.431,46,30h420C466,13.431,452.569,0,436,0z"/>
	</g>
</g>
<g>
	<g>
		<path d="M466,452H46c-16.569,0-30,13.431-30,30v15c0,8.284,6.716,15,15,15h450c8.284,0,15-6.716,15-15v-15
			C496,465.431,482.569,452,466,452z"/>
	</g>
</g>
<g>
	<g>
		<path d="M447.25,240c-18.494,0-35.295-6.678-48.75-17.393C385.045,233.322,368.244,240,349.75,240
			c-12.167,0-23.511-3.063-33.75-8.082V422h150V237.495C459.959,238.984,453.743,240,447.25,240z M361,330c-8.284,0-15-6.716-15-15
			c0-8.286,6.716-15,15-15s15,6.714,15,15C376,323.284,369.284,330,361,330z"/>
	</g>
</g>
<g>
	<g>
		<rect x="136" y="300" width="90" height="61"/>
	</g>
</g>
<g>
	<g>
		<path d="M256,240c-17.516,0-33.439-6.286-46.218-16.388C196.531,233.741,180.178,240,162.25,240
			c-18.494,0-35.295-6.678-48.75-17.393C100.045,233.322,83.244,240,64.75,240c-6.493,0-12.709-1.016-18.75-2.505V422h240V233.234
			C276.803,237.405,266.761,240,256,240z M256,376c0,8.291-6.709,15-15,15H121c-8.291,0-15-6.709-15-15v-91c0-8.291,6.709-15,15-15
			h120c8.291,0,15,6.709,15,15V376z"/>
	</g>
</g>
<g>
	<g>
		<path d="M16,120v41.25C16,188.174,37.826,210,64.75,210s48.75-21.826,48.75-48.75c0,26.924,21.826,48.75,48.75,48.75
			S211,188.174,211,161.25V165c0,24.853,20.147,45,45,45c24.853,0,45-20.147,45-45v-3.75c0,26.924,21.826,48.75,48.75,48.75
			s48.75-21.826,48.75-48.75c0,26.924,21.826,48.75,48.75,48.75S496,188.174,496,161.25V120C209.969,120,190.801,120,16,120z"/>
	</g>
</g>
<g>
	<g>
		<polygon points="475.272,60 36.728,60 21.728,90 490.272,90 		"/>
	</g>
</g>
<g>
</g>
<g>
</g>
<g>
</g>
<g>
</g>
<g>
</g>
<g>
</g>
<g>
</g>
<g>
</g>
<g>
</g>
<g>
</g>
<g>
</g>
<g>
</g>
<g>
</g>
<g>
</g>
<g>
</g>
</svg>
