<?xml version="1.0" encoding="iso-8859-1"?>
<!-- Generator: Adobe Illustrator 19.0.0, SVG Export Plug-In . SVG Version: 6.00 Build 0)  -->
<svg version="1.1" id="Capa_1" xmlns="http://www.w3.org/2000/svg" xmlns:xlink="http://www.w3.org/1999/xlink" x="0px" y="0px"
	 viewBox="0 0 496 496" style="enable-background:new 0 0 496 496;" xml:space="preserve">
<g>
	<path style="fill:#333333;" d="M160,472c0,4.408-3.584,8-8,8h-48c-4.416,0-8-3.592-8-8v-16H80v16c0,13.232,10.768,24,24,24h48
		c13.232,0,24-10.768,24-24v-16h-16V472z"/>
	<path style="fill:#333333;" d="M400,472c0,4.408-3.584,8-8,8h-48c-4.416,0-8-3.592-8-8v-16h-16v16c0,13.232,10.768,24,24,24h48
		c13.232,0,24-10.768,24-24v-16h-16V472z"/>
</g>
<path style="fill:#FFA64D;" d="M456,464H40c-22.056,0-40-17.944-40-40V232c0-22.056,17.944-40,40-40h416c22.056,0,40,17.944,40,40
	v192C496,446.056,478.056,464,456,464z"/>
<g>
	<path style="fill:#333333;" d="M464,384V240c0-8.824-7.176-16-16-16H48c-8.824,0-16,7.176-16,16v176c0,8.824,7.176,16,16,16h400
		c8.824,0,16-7.176,16-16v-16h-16v16H48V240h400v144H464z"/>
	<polygon style="fill:#333333;" points="112,400 112,256 92.16,256 57.752,299 70.248,309 96,276.808 96,400 	"/>
	<polygon style="fill:#333333;" points="328,400 328,256 308.16,256 273.752,299 286.248,309 312,276.808 312,400 	"/>
	<path style="fill:#333333;" d="M120,328c0,39.696,25.128,72,56,72s56-32.304,56-72s-25.128-72-56-72S120,288.304,120,328z M216,328
		c0,30.88-17.944,56-40,56s-40-25.12-40-56s17.944-56,40-56S216,297.12,216,328z"/>
	<path style="fill:#333333;" d="M424,296c0-22.056-17.944-40-40-40h-32v16h32c13.232,0,24,10.768,24,24s-10.768,24-24,24h-32v16h32
		c13.232,0,24,10.768,24,24s-10.768,24-24,24h-32v16h32c22.056,0,40-17.944,40-40c0-13.128-6.448-24.704-16.248-32
		C417.552,320.704,424,309.128,424,296z"/>
	<rect x="248" y="272" style="fill:#333333;" width="16" height="16"/>
	<rect x="248" y="368" style="fill:#333333;" width="16" height="16"/>
	<path style="fill:#333333;" d="M216,128c0,17.648,14.352,32,32,32s32-14.352,32-32s-14.352-32-32-32S216,110.352,216,128z M264,128
		c0,8.824-7.176,16-16,16s-16-7.176-16-16s7.176-16,16-16S264,119.176,264,128z"/>
	<path style="fill:#333333;" d="M296,128h16c0-35.288-28.712-64-64-64s-64,28.712-64,64h16c0-26.472,21.528-48,48-48
		S296,101.528,296,128z"/>
	<path style="fill:#333333;" d="M344,128c0-52.936-43.064-96-96-96s-96,43.064-96,96h16c0-44.112,35.888-80,80-80s80,35.888,80,80
		H344z"/>
	<path style="fill:#333333;" d="M248,16c61.76,0,112,50.24,112,112h16C376,57.424,318.576,0,248,0S120,57.424,120,128h16
		C136,66.24,186.24,16,248,16z"/>
</g>
<g>
</g>
<g>
</g>
<g>
</g>
<g>
</g>
<g>
</g>
<g>
</g>
<g>
</g>
<g>
</g>
<g>
</g>
<g>
</g>
<g>
</g>
<g>
</g>
<g>
</g>
<g>
</g>
<g>
</g>
</svg>
